<?xml version="1.0" encoding="utf-8"?>
<!-- Generator: Adobe Illustrator 19.0.1, SVG Export Plug-In . SVG Version: 6.00 Build 0)  -->
<!DOCTYPE svg PUBLIC "-//W3C//DTD SVG 1.1//EN" "http://www.w3.org/Graphics/SVG/1.1/DTD/svg11.dtd" [
	<!ENTITY ns_extend "http://ns.adobe.com/Extensibility/1.0/">
	<!ENTITY ns_ai "http://ns.adobe.com/AdobeIllustrator/10.0/">
	<!ENTITY ns_graphs "http://ns.adobe.com/Graphs/1.0/">
	<!ENTITY ns_vars "http://ns.adobe.com/Variables/1.0/">
	<!ENTITY ns_imrep "http://ns.adobe.com/ImageReplacement/1.0/">
	<!ENTITY ns_sfw "http://ns.adobe.com/SaveForWeb/1.0/">
	<!ENTITY ns_custom "http://ns.adobe.com/GenericCustomNamespace/1.0/">
	<!ENTITY ns_adobe_xpath "http://ns.adobe.com/XPath/1.0/">
]>
<svg version="1.1" id="Layer_1" xmlns:x="&ns_extend;" xmlns:i="&ns_ai;" xmlns:graph="&ns_graphs;"
	 xmlns="http://www.w3.org/2000/svg" xmlns:xlink="http://www.w3.org/1999/xlink" x="0px" y="0px" viewBox="-308 -61 22 602"
	 style="enable-background:new -308 -61 22 602;" xml:space="preserve">
<style type="text/css">
	.st0{fill:#FFF0A4;}
</style>
<metadata>
	<sfw  xmlns="&ns_sfw;">
		<slices></slices>
		<sliceSourceBounds  width="21.4" height="601.1" x="0" y="0.7" bottomLeftOrigin="true"></sliceSourceBounds>
	</sfw>
</metadata>
<title>Group 13</title>
<desc>Created with Sketch.</desc>
<g id="_x33_.2---Ajankohtaista-_x2F_-Tapahtuma" transform="translate(-750.000000, -79.000000)">
	
		<g id="Group-13" transform="translate(761.000000, 380.000000) scale(-1, -1) rotate(90.000000) translate(-761.000000, -380.000000) translate(460.000000, 369.000000)">
		<g id="wave">
			<path id="Combined-Shape" class="st0" d="M211.9-306.1c-37.6,0-37.6,19.5-75.1,19.5s-37.6-19.5-75.1-19.5v-1.9h150.3h150.3h150.3
				h150.3v1.9c-37.6,0-37.6,19.5-75.1,19.5c-37.6,0-37.6-19.5-75.1-19.5s-37.6,19.5-75.1,19.5s-37.6-19.5-75.1-19.5
				s-37.6,19.5-75.1,19.5S249.5-306.1,211.9-306.1z"/>
		</g>
	</g>
</g>
</svg>
