<?xml version="1.0" encoding="UTF-8"?>
<svg width="688px" height="21px" viewBox="0 0 688 21" version="1.1" xmlns="http://www.w3.org/2000/svg" xmlns:xlink="http://www.w3.org/1999/xlink">
    <!-- Generator: Sketch 48.2 (47327) - http://www.bohemiancoding.com/sketch -->
    <title>Group 13</title>
    <desc>Created with Sketch.</desc>
    <defs></defs>
    <g id="Artboard-Copy" stroke="none" stroke-width="1" fill="none" fill-rule="evenodd" transform="translate(-605.000000, -1897.000000)">
        <g id="Group-13" transform="translate(949.000000, 1907.500000) scale(-1, 1) rotate(180.000000) translate(-949.000000, -1907.500000) translate(605.000000, 1897.000000)" fill="#FFFFFF" fill-rule="nonzero">
            <g id="wave">
                <path d="M137.78932,0 L275.277683,0 L412.766046,0 L550.254409,0 L687.742772,0 L687.742772,1.81911644 C653.370681,1.81911644 653.370681,20.1060238 618.99859,20.1060238 C584.6265,20.1060238 584.6265,1.81911644 550.254409,1.81911644 C515.882318,1.81911644 515.882318,20.1060238 481.510227,20.1060238 C447.138137,20.1060238 447.138137,1.81911644 412.766046,1.81911644 C378.393955,1.81911644 378.393955,20.1060238 344.021864,20.1060238 C309.649774,20.1060238 309.649774,1.81911644 275.277683,1.81911644 C240.905592,1.81911644 240.905592,20.1060238 206.533501,20.1060238 C172.161411,20.1060238 172.161411,1.81911644 137.78932,1.81911644 C103.417229,1.81911644 103.417229,20.1060238 69.0451383,20.1060238 C34.6730475,20.1060238 34.6730475,1.81911644 0.300956754,1.81911644 L0.300956754,0 L137.78932,0 Z" id="Combined-Shape"></path>
            </g>
        </g>
    </g>
</svg>