<?xml version="1.0" encoding="UTF-8"?>
<svg width="12px" height="210px" viewBox="0 0 12 210" version="1.1" xmlns="http://www.w3.org/2000/svg" xmlns:xlink="http://www.w3.org/1999/xlink">
    <!-- Generator: Sketch 48.2 (47327) - http://www.bohemiancoding.com/sketch -->
    <title>Combined Shape</title>
    <desc>Created with Sketch.</desc>
    <defs></defs>
    <g id="2.2---Mikäonoodi/ukk" stroke="none" stroke-width="1" fill="none" fill-rule="evenodd" transform="translate(-1058.000000, -1759.000000)">
        <path d="M1069.12154,1759.83316 L1069.12154,1828.38579 L1068.19478,1828.38579 C1068.19478,1811.24764 1058.87846,1811.24764 1058.87846,1794.10948 C1058.87846,1776.97132 1068.19478,1776.97132 1068.19478,1759.83316 L1069.12154,1759.83316 Z M1069.12154,1829.72368 L1069.12154,1898.27632 L1068.19478,1898.27632 C1068.19478,1881.13816 1058.87846,1881.13816 1058.87846,1864 C1058.87846,1846.86184 1068.19478,1846.86184 1068.19478,1829.72368 L1069.12154,1829.72368 Z M1069.12154,1899.61421 L1069.12154,1968.16684 L1068.19478,1968.16684 C1068.19478,1951.02868 1058.87846,1951.02868 1058.87846,1933.89052 C1058.87846,1916.75236 1068.19478,1916.75236 1068.19478,1899.61421 L1069.12154,1899.61421 Z" id="Combined-Shape" fill="#F4D9E5" transform="translate(1064.000000, 1864.000000) scale(-1, 1) translate(-1064.000000, -1864.000000) "></path>
    </g>
</svg>