<?xml version="1.0" encoding="utf-8"?>
<!-- Generator: Adobe Illustrator 19.0.1, SVG Export Plug-In . SVG Version: 6.00 Build 0)  -->
<!DOCTYPE svg PUBLIC "-//W3C//DTD SVG 1.1//EN" "http://www.w3.org/Graphics/SVG/1.1/DTD/svg11.dtd" [
	<!ENTITY ns_extend "http://ns.adobe.com/Extensibility/1.0/">
	<!ENTITY ns_ai "http://ns.adobe.com/AdobeIllustrator/10.0/">
	<!ENTITY ns_graphs "http://ns.adobe.com/Graphs/1.0/">
	<!ENTITY ns_vars "http://ns.adobe.com/Variables/1.0/">
	<!ENTITY ns_imrep "http://ns.adobe.com/ImageReplacement/1.0/">
	<!ENTITY ns_sfw "http://ns.adobe.com/SaveForWeb/1.0/">
	<!ENTITY ns_custom "http://ns.adobe.com/GenericCustomNamespace/1.0/">
	<!ENTITY ns_adobe_xpath "http://ns.adobe.com/XPath/1.0/">
]>
<svg version="1.1" id="Layer_1" xmlns:x="&ns_extend;" xmlns:i="&ns_ai;" xmlns:graph="&ns_graphs;"
	 xmlns="http://www.w3.org/2000/svg" xmlns:xlink="http://www.w3.org/1999/xlink" x="0px" y="0px" viewBox="430 230 1500 22"
	 style="enable-background:new 430 230 1500 22;" xml:space="preserve">
<style type="text/css">
	.st0{fill:#FFF0A4;}
</style>
<metadata>
	<sfw  xmlns="&ns_sfw;">
		<slices></slices>
		<sliceSourceBounds  width="1803.1" height="21.4" x="-94.7" y="0" bottomLeftOrigin="true"></sliceSourceBounds>
	</sfw>
</metadata>
<title>Group 2</title>
<desc>Created with Sketch.</desc>
<g id="_x33_.1---Ajankohtaista-_x2F_-Artikkeli" transform="translate(0.000000, -3617.000000)">
	<g id="Group-2" transform="translate(-95.000000, 3617.000000)">
		
			<g id="Group-13" transform="translate(1503.000000, 11.000000) scale(-1, -1) translate(-1503.000000, -11.000000) translate(1202.000000, 0.000000)">
			<g id="wave">
				<path id="Combined-Shape" class="st0" d="M-279.1-228.1c-37.6,0-37.6,19.5-75.1,19.5s-37.6-19.5-75.1-19.5v-1.9h150.3h150.3
					H21.5h150.3v1.9c-37.6,0-37.6,19.5-75.1,19.5S59-228.1,21.5-228.1s-37.6,19.5-75.1,19.5s-37.6-19.5-75.1-19.5
					s-37.6,19.5-75.1,19.5S-241.5-228.1-279.1-228.1z"/>
			</g>
		</g>
		
			<g id="Group-13_1_" transform="translate(902.000000, 11.000000) scale(-1, -1) translate(-902.000000, -11.000000) translate(601.000000, 0.000000)">
			<g id="wave_1_">
				<path id="Combined-Shape_1_" class="st0" d="M-279.1-228.1c-37.6,0-37.6,19.5-75.1,19.5s-37.6-19.5-75.1-19.5v-1.9h150.3h150.3
					H21.5h150.3v1.9c-37.6,0-37.6,19.5-75.1,19.5S59-228.1,21.5-228.1s-37.6,19.5-75.1,19.5s-37.6-19.5-75.1-19.5
					s-37.6,19.5-75.1,19.5S-241.5-228.1-279.1-228.1z"/>
			</g>
		</g>
		<g id="Group-13_2_" transform="translate(301.000000, 11.000000) scale(-1, -1) translate(-301.000000, -11.000000) ">
			<g id="wave_2_">
				<path id="Combined-Shape_2_" class="st0" d="M-279.1-228.1c-37.6,0-37.6,19.5-75.1,19.5s-37.6-19.5-75.1-19.5v-1.9h150.3h150.3
					H21.5h150.3v1.9c-37.6,0-37.6,19.5-75.1,19.5S59-228.1,21.5-228.1s-37.6,19.5-75.1,19.5s-37.6-19.5-75.1-19.5
					s-37.6,19.5-75.1,19.5S-241.5-228.1-279.1-228.1z"/>
			</g>
		</g>
	</g>
</g>
</svg>
